<svg width="42" height="50" viewBox="0 0 42 50" fill="none" xmlns="http://www.w3.org/2000/svg">
<path fill-rule="evenodd" clip-rule="evenodd" d="M31.0938 1.78376L28.3694 4.50237C31.4904 6.77308 33.5258 10.4396 33.5258 14.5852H8.47429C8.47429 10.45 10.4993 6.7835 13.5994 4.50237L10.8646 1.77335C10.4575 1.36712 10.4575 0.7109 10.8646 0.304672C11.2717 -0.101557 11.9293 -0.101557 12.3364 0.304672L15.4365 3.39826C17.1171 2.56497 18.9959 2.08583 21.0001 2.08583C22.9938 2.08583 24.8622 2.56497 26.5323 3.38784L29.622 0.315088C30.0291 -0.0911411 30.6867 -0.0911411 31.0938 0.315088C31.5008 0.721317 31.5008 1.37753 31.0938 1.78376ZM0.123779 19.7932C0.123779 18.0642 1.52249 16.6684 3.25522 16.6684C4.98795 16.6684 6.38667 18.0642 6.38667 19.7932V34.3758C6.38667 36.1049 4.98795 37.5007 3.25522 37.5007C1.52249 37.5007 0.123779 36.1049 0.123779 34.3758V19.7932ZM10.5619 39.5839C9.41373 39.5839 8.47429 38.6464 8.47429 37.5007V16.6684H33.5258V37.5007C33.5258 38.6464 32.5864 39.5839 31.4382 39.5839H29.3506V46.8752C29.3506 48.6042 27.9519 50 26.2191 50C24.4864 50 23.0877 48.6042 23.0877 46.8752V39.5839H18.9124V46.8752C18.9124 48.6042 17.5137 50 15.781 50C14.0483 50 12.6496 48.6042 12.6496 46.8752V39.5839H10.5619ZM38.7449 16.6684C37.0122 16.6684 35.6135 18.0642 35.6135 19.7932V34.3758C35.6135 36.1049 37.0122 37.5007 38.7449 37.5007C40.4776 37.5007 41.8764 36.1049 41.8764 34.3758V19.7932C41.8764 18.0642 40.4776 16.6684 38.7449 16.6684ZM16.8248 10.4187H14.7372V8.3355H16.8248V10.4187ZM25.1753 10.4187H27.263V8.3355H25.1753V10.4187Z" fill="#8FC53F"/>
</svg>
