<svg width="60" height="60" viewBox="0 0 60 60" fill="none" xmlns="http://www.w3.org/2000/svg">
<rect width="60" height="60" rx="30" fill="#FFAE00"/>
<path fill-rule="evenodd" clip-rule="evenodd" d="M37.8879 17.3524H23.5802H14.9956V25.937V27.3677V35.9524H23.5802H37.8879H46.4725V27.3677V25.937V17.3524H37.8879ZM44.1833 29.657V23.6488L43.249 22.7149C43.2083 22.7227 43.1688 22.7334 43.1294 22.7441C43.0537 22.7646 42.9784 22.785 42.8956 22.785C41.8697 22.785 41.0385 21.9551 41.0385 20.9293C41.0385 20.8448 41.0597 20.7674 41.0811 20.6897C41.0915 20.6516 41.102 20.6135 41.11 20.5744L40.1771 19.6416H21.291L20.3567 20.5759C20.3647 20.6151 20.3753 20.6533 20.3858 20.6913L20.3858 20.6914L20.3858 20.6914C20.4071 20.7684 20.4282 20.845 20.4282 20.9293C20.4282 21.9551 19.5984 22.7864 18.5725 22.7864C18.488 22.7864 18.4106 22.7651 18.3329 22.7438L18.3329 22.7438L18.3329 22.7438C18.2949 22.7333 18.2567 22.7229 18.2177 22.7149L17.2848 23.6477V29.656L18.2191 30.5898C18.2598 30.582 18.2993 30.5713 18.3387 30.5606L18.3388 30.5606C18.4144 30.5401 18.4898 30.5197 18.5725 30.5197C19.5984 30.5197 20.4297 31.3496 20.4297 32.3754C20.4297 32.459 20.4084 32.5367 20.387 32.6148C20.3766 32.653 20.3661 32.6912 20.3581 32.7303L21.291 33.6631H40.1771L41.1114 32.7288C41.1034 32.6896 41.0929 32.6514 41.0823 32.6134C41.0611 32.5363 41.0399 32.4597 41.0399 32.3754C41.0399 31.3496 41.8697 30.5183 42.8956 30.5183C42.9801 30.5183 43.0575 30.5396 43.1352 30.5609C43.1733 30.5714 43.2114 30.5818 43.2504 30.5898L44.1833 29.657ZM40.0341 28.5095C41.0597 28.5095 41.8912 27.678 41.8912 26.6524C41.8912 25.6267 41.0597 24.7952 40.0341 24.7952C39.0084 24.7952 38.1769 25.6267 38.1769 26.6524C38.1769 27.678 39.0084 28.5095 40.0341 28.5095ZM36.3513 26.6524C36.3513 29.3501 33.8364 31.537 30.7341 31.537C27.6318 31.537 25.1169 29.3501 25.1169 26.6524C25.1169 23.9546 27.6318 21.7677 30.7341 21.7677C33.8364 21.7677 36.3513 23.9546 36.3513 26.6524ZM21.4341 28.5081C22.4589 28.5081 23.2898 27.6772 23.2898 26.6524C23.2898 25.6275 22.4589 24.7966 21.4341 24.7966C20.4092 24.7966 19.5784 25.6275 19.5784 26.6524C19.5784 27.6772 20.4092 28.5081 21.4341 28.5081Z" fill="white"/>
<path d="M30.0185 26.1724L30.0189 26.1721C30.6483 25.8234 31.4255 25.8823 31.9953 26.3235L30.0185 26.1724ZM30.0185 26.1724C29.3892 26.5213 29.0272 27.2115 29.0993 27.9285C29.0993 27.9286 29.0994 27.9287 29.0994 27.9288L30.3269 40.137L30.3269 40.1372M30.0185 26.1724L30.3269 40.1372M42.3569 35.6298C42.4989 34.9544 42.2427 34.257 41.6967 33.8343C41.6966 33.8343 41.6966 33.8342 41.6965 33.8342L31.9957 26.3238L41.1826 35.383M42.3569 35.6298L41.1826 35.383M42.3569 35.6298C42.3569 35.6298 42.3569 35.6298 42.3569 35.6298L41.1826 35.383M42.3569 35.6298C42.215 36.3052 41.6997 36.8403 41.0298 37.0075L40.7393 35.8432M41.1826 35.383C41.1352 35.6086 40.9631 35.7873 40.7393 35.8432M40.7393 35.8432L41.0298 37.0075M40.7393 35.8432L41.0298 37.0075M41.0298 37.0075L39.6834 37.3434M41.0298 37.0075L39.0812 36.2569L39.6834 37.3434M39.6834 37.3434L41.3814 40.4067M39.6834 37.3434L38.4781 37.6442L40.3318 40.9885L41.3814 40.4068M41.3814 40.4067L31.4997 41.6486C32.1479 41.8863 32.8747 41.7327 33.3713 41.2532C33.3715 41.2531 33.3716 41.2529 33.3717 41.2528L34.3696 40.2895L36.0671 43.3523C36.2988 43.7706 36.6873 44.0795 37.1466 44.2112C37.6061 44.343 38.099 44.2867 38.517 44.055C38.5171 44.055 38.5171 44.0549 38.5172 44.0549L40.6791 42.8563L40.6791 42.8563C41.5494 42.3738 41.8638 41.2772 41.3814 40.4068M41.3814 40.4067C41.3814 40.4068 41.3814 40.4068 41.3814 40.4068M41.3814 40.4067L41.3814 40.4068M30.3269 40.1372C30.396 40.8236 30.8511 41.4106 31.4991 41.6484L30.3269 40.1372Z" fill="white" stroke="#F5A623" stroke-width="2.4"/>
</svg>
