<svg xmlns="http://www.w3.org/2000/svg" width="102" height="107" viewBox="0 0 102 107">
    <path fill="#F0B822" fill-rule="nonzero" stroke-dasharray="4,8" stroke-linecap="round" stroke-linejoin="round" d="M75.89 45.796c14.258-11.208 43.589-51.266-2.241-44.21-19.961 2.906-49.293 21.379-55.2 42.55A168.395 168.395 0 0 0 8.266 27.738c-5.5-7.265-11.814-1.66-5.703 5.811 17.313 21.378 29.33 47.115 29.33 73.06 1.427-12.869-.814-28.643-6.11-44.002 2.648.83 5.5 1.245 8.148 1.245 9.37 14.53 23.628 26.982 39.719 32.794 14.666 5.604 34.22 2.283 26.276-20.133-4.278-12.246-14.258-23.039-24.035-30.718zm2.036-39.02c25.461-2.699-1.833 27.397-10.795 33-8.351-5.188-18.74-9.754-28.924-8.509 7.333-8.925 25.054-22.831 39.72-24.492zM38.004 37.908c6.925-.623 14.461 3.113 20.165 6.85a47.924 47.924 0 0 1-17.925 4.773c-9.37 0-11.203-10.793-2.24-11.623zm35.238 46.907c-12.018-3.32-23.22-12.453-31.368-21.793 6.721-1.245 13.24-3.736 19.35-7.264 2.24-1.038 4.481-2.491 6.518-3.944 7.13 6.227 14.462 14.529 17.314 23.869 2.851 10.17-4.889 11-11.814 9.132z"/>
</svg>