<svg xmlns="http://www.w3.org/2000/svg" width="309" height="57" viewBox="0 0 309 57">
    <g fill="none" fill-rule="evenodd">
        <path fill="#151027" d="M303.37 21.57l1.139 1.677c.113.224.227.335.227.447 0 .224-.227.447-.455.447s-.341-.112-.569-.335l-1.82-2.235h-1.48v2.011c0 .336-.227.56-.569.56-.34 0-.568-.224-.568-.56v-5.7c0-.335.227-.558.568-.558h2.617c1.48 0 2.504.782 2.504 2.123 0 1.006-.683 1.9-1.593 2.124zm-2.844-.782l1.707-.112c.91 0 1.48-.447 1.48-1.229s-.57-1.118-1.48-1.118h-1.707v2.46z"/>
        <path fill="#151027" fill-rule="nonzero" d="M88.889 14.641H71.708a1.01 1.01 0 0 0-1.024 1.006h-.114v24.7a1.01 1.01 0 0 0 1.024 1.006c.569 0 1.024-.447 1.138-1.006V29.171h14.564a.89.89 0 0 0 .91-.895c0-.558-.455-.894-.91-.894H72.618v-10.84h16.27a.89.89 0 0 0 .911-.895c0-.447-.341-1.006-.91-1.006zM96.74 13.3h-.114c-.455 0-.796.447-.796.894v26.041c0 .56.455.894.91.894a.89.89 0 0 0 .91-.894v-25.93c0-.558-.341-1.005-.91-1.005zm24.805 9.388c0-.559-.455-.894-.91-.894a.89.89 0 0 0-.91.894V33.53c0 3.689-3.073 6.595-6.828 6.483-3.982 0-6.258-2.57-6.258-6.594v-10.73c0-.559-.455-.894-.91-.894s-.91.447-.91.894v11.065c0 4.582 2.958 7.935 7.85 7.935 2.959.112 5.804-1.453 7.169-4.023v2.794c0 .559.455.894.91.894a.89.89 0 0 0 .91-.894h-.113v-17.77zm16.385.894c.455 0 .91-.335.91-.782s-.455-.894-.91-.894h-6.259V16.54c0-.447-.455-.894-.91-.894h-.114c-.455 0-.796.447-.796.894v5.365h-2.162c-.455 0-.91.335-.91.782s.455.894.91.894h2.162v12.63c0 3.576 2.503 5.253 5.462 5.253.91 0 1.934-.112 2.844-.447a.842.842 0 0 0 .57-.783c0-.447-.342-.782-.797-.782-.683.223-1.48.335-2.276.335-2.39 0-3.983-1.006-3.983-3.8V23.582h6.259zm15.474 0c.455 0 .91-.335.91-.782s-.455-.894-.91-.894h-6.258V16.54c0-.447-.455-.894-.91-.894h-.114c-.455 0-.796.447-.796.894v5.365h-2.162c-.456 0-.91.335-.91.782s.454.894.91.894h2.162v12.63c0 3.576 2.503 5.253 5.461 5.253.91 0 1.934-.112 2.845-.447a.842.842 0 0 0 .569-.783c0-.447-.342-.782-.797-.782-.683.223-1.48.335-2.276.335-2.389 0-3.982-1.006-3.982-3.8V23.582h6.258zm13.654-2.235c-5.348 0-9.33 4.47-9.33 10.17v.112c0 6.147 4.437 10.171 9.671 10.171 2.845.112 5.69-1.006 7.624-3.13.228-.223.341-.446.341-.67 0-.447-.455-.894-.91-.894a.877.877 0 0 0-.569.223c-1.593 1.677-3.982 2.683-6.372 2.683-3.868 0-7.396-2.794-7.737-7.6h15.475c.455 0 .91-.447.91-.894 0-5.7-3.527-10.17-9.103-10.17zm-7.396 9.277c.342-4.248 3.414-7.489 7.282-7.489 4.438 0 6.827 3.577 7.055 7.489h-14.337zm31.746-8.942c-3.527.224-6.6 2.57-7.851 5.812V22.8c0-.447-.455-.894-.91-.894-.57 0-.91.335-1.025.894v17.882c0 .447.456.894.91.894.57 0 .911-.335 1.025-.894V33.53c0-6.258 3.64-9.276 7.85-9.723h.115c.569 0 .91-.559.91-1.006 0-.67-.455-1.118-1.024-1.118zm31.063-1.006c-1.366 0-2.504.895-2.845 2.236l-3.3 10.394-3.3-10.394c-.34-1.341-1.592-2.347-3.071-2.347h-.342c-1.479 0-2.73.894-3.072 2.347l-3.3 10.282-3.186-10.394c-.341-1.23-1.479-2.235-2.844-2.235h-.114c-1.48 0-2.617 1.23-2.617 2.682 0 .447.114.894.228 1.341l5.12 14.418c.341 1.453 1.593 2.459 3.186 2.57h.227c1.48 0 2.731-1.005 3.186-2.458l3.3-10.283 3.3 10.283c.341 1.453 1.706 2.458 3.186 2.458h.227c1.593 0 2.959-1.005 3.3-2.57l5.12-14.53c.114-.335.228-.782.228-1.117v-.112c0-1.453-1.138-2.57-2.617-2.57zm14.564 0c-2.276-.111-4.438.336-6.6 1.006-.91.336-1.479 1.23-1.479 2.236 0 1.34 1.138 2.347 2.504 2.235.227 0 .568 0 .796-.112 1.365-.447 2.73-.559 4.096-.559 2.959 0 4.438 1.23 4.438 3.689v.335c-1.593-.559-3.3-.782-5.007-.782-4.892 0-8.306 2.123-8.306 6.594 0 4.023 3.3 6.258 7.055 6.258 2.39.112 4.665-.894 6.258-2.57.114 1.453 1.365 2.459 2.844 2.459 1.593 0 2.845-1.23 2.845-2.794v-9.165a9.1 9.1 0 0 0-2.276-6.482c-1.706-1.453-3.982-2.348-7.168-2.348zm3.869 13.3c0 2.236-1.935 3.577-4.666 3.465-1.82 0-3.185-.894-3.185-2.459v-.111c0-1.677 1.593-2.795 4.096-2.795 1.251 0 2.617.336 3.755.783v1.117zm25.828-13.411c-1.251 0-2.389.782-2.73 2.011l-4.552 11.848-4.437-11.736c-.342-1.23-1.48-2.123-2.845-2.123-1.479 0-2.73 1.117-2.844 2.682 0 .447.113.894.34 1.341l6.373 14.418c.455 1.453 1.707 2.459 3.3 2.57h.34c1.48-.111 2.845-1.005 3.414-2.458l6.145-14.418c.227-.447.341-.894.341-1.341v-.112c0-1.453-1.252-2.682-2.845-2.682zm15.361-.112c-6.03 0-10.24 4.806-10.24 10.618v.894c.227 5.588 5.12 9.947 10.81 9.611 2.616 0 5.12-.782 7.167-2.458.57-.447.797-1.006.797-1.677v-.112c0-1.229-1.024-2.235-2.276-2.235-.455 0-1.024.112-1.365.447-1.252.894-2.73 1.453-4.21 1.341-2.503.112-4.665-1.564-5.007-4.023h11.72c1.48-.112 2.617-1.341 2.503-2.794v-.447c0-5.03-4.437-9.277-9.899-9.165zm-4.437 9.053c.455-2.682 2.048-4.359 4.437-4.359 2.39 0 3.983 1.788 4.324 4.359h-8.761zm30.949-8.83c-.114-3.576-3.072-6.482-6.827-6.482-3.641.112-6.6 3.018-6.6 6.706 0 3.576 2.959 6.594 6.714 6.594a6.69 6.69 0 0 0 6.713-6.706v-.112zm-6.6 6.148c-3.3 0-6.03-2.571-6.03-5.924 0-3.241 2.73-5.812 6.03-5.924 3.3 0 6.03 2.571 6.03 5.924-.113 3.241-2.73 5.924-6.03 5.924z"/>
        <path fill="#F0B822" fill-rule="nonzero" d="M42.465 24.253C50.43 18.218 66.815-3.353 41.214.447 30.063 2.012 13.678 11.96 10.378 23.36a90.207 90.207 0 0 0-5.689-8.83c-3.072-3.911-6.6-.894-3.186 3.13C11.175 29.17 17.888 43.029 17.888 57c.797-6.93-.455-15.424-3.413-23.694 1.479.447 3.072.67 4.55.67 5.235 7.824 13.2 14.53 22.189 17.66 8.192 3.017 19.115 1.229 14.678-10.842-2.39-6.594-7.965-12.406-13.427-16.541zM43.603 3.24c14.223-1.453-1.024 14.753-6.03 17.77-4.666-2.793-10.468-5.252-16.158-4.582 4.097-4.805 13.996-12.294 22.188-13.188zM21.302 20.006c3.868-.335 8.078 1.676 11.264 3.688a27.56 27.56 0 0 1-10.013 2.57c-5.234 0-6.258-5.811-1.251-6.258zm19.684 25.259c-6.713-1.789-12.971-6.706-17.523-11.736 3.755-.67 7.396-2.011 10.81-3.911 1.251-.56 2.503-1.342 3.64-2.124 3.983 3.353 8.08 7.824 9.673 12.853 1.592 5.477-2.731 5.924-6.6 4.918z"/>
    </g>
</svg>