<svg width="7" height="10" viewBox="0 0 7 10" fill="none" xmlns="http://www.w3.org/2000/svg">
<path fill-rule="evenodd" clip-rule="evenodd" d="M0.552839 1.82545H3.80399C4.10762 1.82545 4.3554 2.11404 4.35683 2.46935V7.90243C4.35683 8.25775 4.10906 8.54632 3.80399 8.54632H0.552839C0.247775 8.54632 0 8.25775 0 7.90243V2.46935C0 2.11404 0.247775 1.82545 0.552839 1.82545ZM3.80256 8.09427C3.89422 8.09427 3.9687 8.00753 3.9687 7.90076V2.46935C3.9687 2.36259 3.89422 2.27585 3.80256 2.27585H0.551406C0.459744 2.27585 0.385269 2.36259 0.385269 2.46935V7.90076C0.385269 8.00753 0.459744 8.09427 0.551406 8.09427H3.80256Z" fill="#333333"/>
<path d="M5.04398 0.4H1.79283C1.48777 0.4 1.23999 0.688585 1.23999 1.0439C1.23999 1.16901 1.32592 1.2691 1.43334 1.2691C1.54076 1.2691 1.62669 1.16901 1.62669 1.0439C1.62669 0.937136 1.70117 0.850394 1.79283 0.850394H5.04398C5.13564 0.850394 5.21012 0.937136 5.21012 1.0439V6.47698C5.21012 6.58374 5.13564 6.67048 5.04398 6.67048C4.93657 6.67048 4.85063 6.77057 4.85063 6.89568C4.85063 7.02079 4.93657 7.12087 5.04398 7.12087C5.34905 7.12087 5.59681 6.83229 5.59681 6.47698V1.0439C5.59681 0.688585 5.34905 0.4 5.04398 0.4Z" fill="#373E42"/>
</svg>
