<svg width="60" height="60" viewBox="0 0 60 60" fill="none" xmlns="http://www.w3.org/2000/svg">
<rect width="60" height="60" rx="30" fill="#FFAE00"/>
<path fill-rule="evenodd" clip-rule="evenodd" d="M39.5593 21.5398V18.5739C39.5593 8.20869 22.7796 8.20869 22.7796 18.5739V21.3596C22.7796 22.9323 24.3068 24.0508 25.8068 23.5783C26.776 23.2729 27.4351 22.3743 27.4351 21.3582V19.4441C27.4351 14.1795 35.2862 14.1795 35.2862 19.4441V21.54C35.2862 22.4526 35.8659 23.2643 36.7292 23.5605C38.116 24.0365 39.5593 23.0061 39.5593 21.5398ZM21.5137 38.2547C19.216 33.9288 19.2 26.6807 19.2 26.6807L31.2813 22.7649L43.3627 26.6807C43.3627 26.6807 43.3466 33.9288 41.0489 38.2547C40.3345 39.5998 39.3075 40.9034 38.173 42.0613C36.3513 41.4613 35.0038 39.8565 34.835 37.9308C34.5696 38.4648 34.2624 38.9801 33.9151 39.4732C34.216 40.3243 34.7149 41.1041 35.3896 41.7586C35.9254 42.2783 36.5426 42.6906 37.2134 42.9846C36.8832 43.2843 36.549 43.5704 36.2153 43.8405C35.5985 43.5144 35.0265 43.1009 34.5161 42.6058C34.1024 42.2045 33.7387 41.7577 33.435 41.278L33.0239 40.6284L32.4359 41.2029C31.0174 42.5789 29.3132 43.5781 27.4529 44.1503C27.9312 44.4434 28.4432 44.6891 28.9824 44.8801C30.3722 44.312 31.6637 43.5171 32.807 42.5137C33.0608 42.8454 33.3404 43.1597 33.6428 43.4531C34.1004 43.897 34.6003 44.2849 35.1338 44.6134C35.2 44.5832 35.2657 44.5521 35.331 44.5203C33.6741 45.7273 32.1322 46.4772 31.2813 46.4772C29.3416 46.4772 23.8113 42.5805 21.5137 38.2547ZM31.7288 24.9403C27.3017 24.9403 23.6999 28.4342 23.6999 32.7286V33.9268C24.381 33.9268 24.9351 33.3893 24.9351 32.7286C24.9351 29.0949 27.9828 26.1385 31.7288 26.1385C35.4748 26.1385 38.5224 29.0949 38.5224 32.7286V37.5214C38.5224 38.1532 39.0292 38.672 39.6692 38.7162C39.7272 38.3393 39.7576 37.9538 39.7576 37.5614V32.7286C39.7576 28.4342 36.1558 24.9403 31.7288 24.9403ZM37.2872 32.7286C37.2872 29.7555 34.7936 27.3368 31.7288 27.3368C28.6639 27.3368 26.1704 29.7556 26.1704 32.7286C26.1704 34.05 25.0621 35.125 23.7 35.125V36.3232C25.7432 36.3232 27.4056 34.7107 27.4056 32.7286C27.4056 30.4162 29.345 28.535 31.7288 28.535C34.1127 28.535 36.052 30.4162 36.052 32.7286V37.5214C36.052 39.2239 37.2785 40.6537 38.9194 41.0232C39.1055 40.6609 39.2638 40.2828 39.3906 39.8912C38.2018 39.7186 37.2872 38.7218 37.2872 37.5214V32.7286ZM28.6407 32.7286C28.6407 31.0769 30.026 29.7331 31.7288 29.7331C33.4315 29.7331 34.8168 31.0769 34.8167 32.7286C34.8167 35.6113 33.661 38.3199 31.5624 40.3556C30.0737 41.7998 28.2356 42.783 26.2322 43.2328C25.883 42.9142 25.5631 42.5658 25.277 42.1916C29.9787 41.4569 33.5815 37.4935 33.5815 32.7286C33.5815 31.7376 32.7503 30.9313 31.7287 30.9313C30.7071 30.9313 29.8759 31.7376 29.8759 32.7286C29.8759 34.3301 29.2338 35.8349 28.0679 36.9658C26.923 38.0765 25.4063 38.6967 23.7886 38.7186C23.7304 38.3409 23.6999 37.9545 23.6999 37.5614V37.5214C26.4243 37.5214 28.6407 35.3713 28.6407 32.7286ZM32.7693 44.3004C32.7317 44.264 32.6945 44.2272 32.6575 44.1902C32.0968 44.604 31.5081 44.9771 30.8946 45.3077C31.1688 45.3353 31.4471 45.3496 31.7288 45.3496C32.4142 45.3496 33.0798 45.2657 33.7154 45.1082C33.3839 44.8589 33.0672 44.5893 32.7693 44.3004ZM31.1112 32.7286C31.1112 32.3977 31.3877 32.1295 31.7288 32.1295C32.0698 32.1295 32.3464 32.3977 32.3464 32.7286C32.3464 34.9706 31.4475 37.0774 29.8153 38.6607C28.3884 40.0449 26.549 40.8853 24.5647 41.0749C24.3697 40.7023 24.2048 40.3126 24.0729 39.9087C27.9868 39.7196 31.1112 36.5714 31.1112 32.7286Z" fill="white"/>
<path d="M45.4011 24.9404L45.827 25.363L45.1839 24.3811L45.4011 24.9404ZM45.4011 24.9404C45.1839 24.3811 45.1839 24.3811 45.1837 24.3811L45.1833 24.3813L45.182 24.3818L45.1774 24.3836L45.16 24.3904L45.0938 24.4166C45.0361 24.4395 44.9518 24.4733 44.844 24.5172C44.6285 24.6049 44.3189 24.7333 43.9402 24.8966C43.1835 25.223 42.1485 25.6899 41.0365 26.2518C39.9259 26.8131 38.7304 27.4733 37.656 28.1871C36.5891 28.8958 35.6063 29.6803 34.951 30.4983C33.7357 32.0152 32.0041 34.5517 30.5867 36.6915C29.8756 37.765 29.2395 38.7448 28.7813 39.4561C28.7252 39.5431 28.6719 39.6261 28.6213 39.7048C28.4415 39.3583 28.2168 38.9499 27.9587 38.5323C27.6177 37.9805 27.2083 37.396 26.7568 36.9155C26.3176 36.448 25.7764 36.0113 25.1617 35.8664C24.1687 35.6324 23.1241 35.7107 22.3 36.1234C21.4534 36.5474 20.8373 37.3354 20.8373 38.4275C20.8373 39.8513 21.3655 40.6781 22.009 41.1188C22.3139 41.3276 22.6168 41.4301 22.8428 41.4808C22.8551 41.4836 22.8672 41.4862 22.8791 41.4887C22.8858 41.5007 22.8927 41.5131 22.8997 41.5259C23.0075 41.7204 23.1629 41.9976 23.354 42.33C23.7357 42.9942 24.2618 43.8822 24.8368 44.7723C25.4092 45.6586 26.0409 46.5638 26.6337 47.2536C26.9291 47.5972 27.2299 47.9052 27.5221 48.1323C27.7925 48.3425 28.1515 48.5605 28.5485 48.5605C29.3529 48.5605 29.9813 48.4202 30.4359 47.9609C30.8408 47.5516 31.0186 46.9582 31.1874 46.3949L31.1943 46.3718C31.5542 45.1708 32.6079 41.7042 35.2428 37.5403C36.5485 35.4769 39.1789 32.4442 41.5145 29.8991C42.6762 28.6332 43.7549 27.4985 44.5432 26.6804C44.9373 26.2714 45.2587 25.9416 45.4813 25.7143C45.5926 25.6007 45.6793 25.5126 45.738 25.4531L45.8046 25.3856L45.8215 25.3686L45.8257 25.3643L45.8267 25.3633L45.8269 25.3631L45.4011 24.9404Z" fill="white" stroke="#F5A623" stroke-width="1.2"/>
</svg>
