<svg width="51" height="34" viewBox="0 0 51 34" fill="none" xmlns="http://www.w3.org/2000/svg">
<path fill-rule="evenodd" clip-rule="evenodd" d="M19.2856 31.8654C25.5721 31.8654 31.3153 27.1625 31.3153 16.817C31.3153 7.36924 26.2951 2.19649 19.7379 2.19724C13.0449 2.19724 7.66327 7.45586 7.66327 17.2449C7.66327 26.7785 12.8638 31.8654 19.2856 31.8654ZM3.73289 4.61186C3.73289 5.12486 3.42052 5.50436 2.88464 5.50436C2.43839 5.50436 2.10352 5.12486 2.10352 4.61186C2.10352 4.12061 2.46052 3.71899 2.92927 3.71899C3.42052 3.71899 3.73289 4.12061 3.73289 4.61186ZM2.49764 31.4375V10.9175H3.33877V31.4375H2.49764ZM8.51564 17.0307C8.51564 24.875 12.3174 30.9687 19.3254 30.9687C26.3821 30.9687 30.4295 24.6875 30.4295 16.9415C30.4295 9.75836 27.1865 3.20299 19.7863 3.20299C12.386 3.20299 8.51564 9.37511 8.51564 17.0307ZM40.3438 31.0629C38.249 31.0629 35.8134 30.1546 34.4023 29.2141L34.0201 30.0687C35.3026 31.0524 37.91 31.8215 40.1761 31.8215C45.6481 31.8215 48.7258 28.3167 48.7258 23.999C48.7258 19.9801 46.4604 18.1332 42.1858 16.0389C42.064 15.9808 41.9431 15.9233 41.8232 15.8663C38.3234 14.2019 35.657 12.9338 35.657 9.37624C35.657 6.71223 37.7431 3.09349 42.5323 3.09349C44.669 3.09349 46.6333 3.74674 47.36 4.25936L47.6998 3.52136C46.8448 2.92286 45.0065 2.23886 42.5698 2.23886C38.0383 2.23886 34.7041 5.23211 34.7041 9.46398C34.7041 13.5252 37.922 15.1794 41.501 16.7034C45.5 18.4062 47.8554 20.3885 47.8554 24.1876C47.8554 28.2815 44.3195 31.0629 40.3438 31.0629Z" fill="black"/>
<path d="M19.7379 2.19724V3.69724H19.7381L19.7379 2.19724ZM2.49764 10.9175V9.41749H0.997641V10.9175H2.49764ZM2.49764 31.4375H0.997641V32.9375H2.49764V31.4375ZM3.33877 10.9175H4.83877V9.41749H3.33877V10.9175ZM3.33877 31.4375V32.9375H4.83877V31.4375H3.33877ZM34.4023 29.2141L35.2342 27.9659L33.7573 26.9816L33.0329 28.6018L34.4023 29.2141ZM34.0201 30.0687L32.6508 29.4565L32.1672 30.538L33.1073 31.259L34.0201 30.0687ZM42.1858 16.0389L42.8457 14.6919L42.8385 14.6883L42.8313 14.6849L42.1858 16.0389ZM41.8232 15.8663L41.179 17.2209V17.2209L41.8232 15.8663ZM47.36 4.25936L46.4954 5.48511L47.9686 6.52428L48.7226 4.88663L47.36 4.25936ZM47.6998 3.52136L49.0623 4.14863L49.5861 3.01082L48.56 2.29251L47.6998 3.52136ZM41.501 16.7034L42.0887 15.3233L42.0887 15.3233L41.501 16.7034ZM29.8153 16.817C29.8153 21.715 28.4593 25.0876 26.5429 27.2174C24.6321 29.3409 22.0446 30.3654 19.2856 30.3654V33.3654C22.8131 33.3654 26.2405 32.0384 28.7729 29.2241C31.2997 26.416 32.8153 22.2645 32.8153 16.817H29.8153ZM19.7381 3.69724C22.5957 3.69691 25.0608 4.8106 26.8362 6.92775C28.6293 9.066 29.8153 12.3491 29.8153 16.817H32.8153C32.8153 11.8371 31.4912 7.80997 29.1349 5.00009C26.7609 2.16912 23.4373 0.696812 19.7377 0.697235L19.7381 3.69724ZM9.16327 17.2449C9.16327 12.6191 10.4328 9.23288 12.3282 7.028C14.2108 4.838 16.8059 3.69724 19.7379 3.69724V0.697235C15.9769 0.697235 12.5347 2.18579 10.0532 5.07234C7.58459 7.94403 6.16327 12.0816 6.16327 17.2449H9.16327ZM19.2856 30.3654C16.4932 30.3654 14.012 29.2707 12.2071 27.1563C10.389 25.0265 9.16327 21.7456 9.16327 17.2449H6.16327C6.16327 22.2777 7.53781 26.3071 9.92539 29.1041C12.3263 31.9166 15.6562 33.3654 19.2856 33.3654V30.3654ZM2.88464 7.00436C3.5276 7.00436 4.15851 6.76487 4.61778 6.26152C5.06135 5.77539 5.23289 5.16749 5.23289 4.61186H2.23289C2.23289 4.56923 2.24824 4.40758 2.40166 4.23945C2.57078 4.0541 2.77756 4.00436 2.88464 4.00436V7.00436ZM0.603516 4.61186C0.603516 5.76289 1.4316 7.00436 2.88464 7.00436V4.00436C3.11147 4.00436 3.32114 4.10947 3.45428 4.26122C3.5795 4.40395 3.60352 4.54353 3.60352 4.61186H0.603516ZM2.92927 2.21899C1.5075 2.21899 0.603516 3.42252 0.603516 4.61186H3.60352C3.60352 4.72967 3.56005 4.87034 3.44799 4.99299C3.33058 5.12149 3.14347 5.21899 2.92927 5.21899V2.21899ZM5.23289 4.61186C5.23289 3.50878 4.4501 2.21899 2.92927 2.21899V5.21899C2.73379 5.21899 2.52156 5.12576 2.3792 4.96064C2.25371 4.81507 2.23289 4.6766 2.23289 4.61186H5.23289ZM0.997641 10.9175V31.4375H3.99764V10.9175H0.997641ZM3.33877 9.41749H2.49764V12.4175H3.33877V9.41749ZM4.83877 31.4375V10.9175H1.83877V31.4375H4.83877ZM2.49764 32.9375H3.33877V29.9375H2.49764V32.9375ZM19.3254 29.4687C16.3159 29.4687 14.0576 28.1868 12.5044 26.0574C10.9157 23.8794 10.0156 20.7332 10.0156 17.0307H7.01564C7.01564 21.1725 8.01644 24.9953 10.0806 27.8253C12.1803 30.7038 15.3268 32.4687 19.3254 32.4687V29.4687ZM28.9295 16.9415C28.9295 20.5725 27.9786 23.7418 26.3215 25.9629C24.6935 28.1449 22.3524 29.4687 19.3254 29.4687V32.4687C23.3552 32.4687 26.5661 30.6519 28.726 27.7568C30.8568 24.9008 31.9295 21.0565 31.9295 16.9415H28.9295ZM19.7863 4.70299C22.9685 4.70299 25.1758 6.07836 26.6451 8.22563C28.1585 10.4375 28.9295 13.5458 28.9295 16.9415H31.9295C31.9295 13.1541 31.079 9.39312 29.1209 6.5315C27.1186 3.6053 24.0043 1.70299 19.7863 1.70299V4.70299ZM10.0156 17.0307C10.0156 13.4342 10.9273 10.3237 12.5718 8.15139C14.1812 6.02549 16.5565 4.70299 19.7863 4.70299V1.70299C15.6158 1.70299 12.3557 3.46654 10.1799 6.34061C8.03921 9.16829 7.01564 12.9716 7.01564 17.0307H10.0156ZM33.5704 30.4623C35.1845 31.5381 37.9048 32.5629 40.3438 32.5629V29.5629C38.5933 29.5629 36.4423 28.7711 35.2342 27.9659L33.5704 30.4623ZM35.3895 30.681L35.7716 29.8264L33.0329 28.6018L32.6508 29.4565L35.3895 30.681ZM40.1761 30.3215C39.2006 30.3215 38.1223 30.154 37.1441 29.8725C36.1463 29.5853 35.3697 29.2135 34.933 28.8785L33.1073 31.259C33.953 31.9076 35.1214 32.4121 36.3145 32.7555C37.5271 33.1044 38.8855 33.3215 40.1761 33.3215V30.3215ZM47.2258 23.999C47.2258 25.7954 46.591 27.3495 45.4562 28.455C44.3247 29.5573 42.5836 30.3215 40.1761 30.3215V33.3215C43.2407 33.3215 45.7744 32.3333 47.5497 30.6038C49.3217 28.8775 50.2258 26.5204 50.2258 23.999H47.2258ZM41.5258 17.3859C43.6402 18.4219 45.0481 19.3031 45.9426 20.2994C46.7704 21.2213 47.2258 22.3191 47.2258 23.999H50.2258C50.2258 21.66 49.5484 19.8249 48.1749 18.2951C46.868 16.8396 45.0059 15.7502 42.8457 14.6919L41.5258 17.3859ZM41.179 17.2209C41.299 17.278 41.4192 17.3352 41.5402 17.3929L42.8313 14.6849C42.7087 14.6264 42.5872 14.5686 42.4674 14.5117L41.179 17.2209ZM34.157 9.37624C34.157 11.6214 35.0366 13.2274 36.4378 14.4582C37.7318 15.5949 39.489 16.4172 41.179 17.2209L42.4674 14.5117C40.6576 13.651 39.3317 13.0071 38.4176 12.2042C37.6107 11.4955 37.157 10.6887 37.157 9.37624H34.157ZM42.5323 1.59349C36.7774 1.59349 34.157 6.02811 34.157 9.37624H37.157C37.157 7.39636 38.7089 4.59349 42.5323 4.59349V1.59349ZM48.2246 3.03361C47.6541 2.63121 46.7884 2.28311 45.863 2.03526C44.9032 1.7782 43.7471 1.59349 42.5323 1.59349V4.59349C43.4542 4.59349 44.3486 4.73539 45.0868 4.93312C45.8594 5.14005 46.3391 5.37489 46.4954 5.48511L48.2246 3.03361ZM46.3372 2.89409L45.9975 3.63209L48.7226 4.88663L49.0623 4.14863L46.3372 2.89409ZM42.5698 3.73886C44.7654 3.73886 46.2863 4.36288 46.8396 4.75021L48.56 2.29251C47.4033 1.48284 45.2477 0.73886 42.5698 0.73886V3.73886ZM36.2041 9.46398C36.2041 6.18703 38.7343 3.73886 42.5698 3.73886V0.73886C37.3423 0.73886 33.2041 4.27719 33.2041 9.46398H36.2041ZM42.0887 15.3233C40.2873 14.5562 38.803 13.8429 37.7565 12.9136C36.7872 12.0528 36.2041 11.0176 36.2041 9.46398H33.2041C33.2041 11.9716 34.23 13.7941 35.7644 15.1567C37.2216 16.4508 39.1357 17.3265 40.9133 18.0835L42.0887 15.3233ZM49.3554 24.1876C49.3554 21.9319 48.6385 20.1184 47.2817 18.6438C45.9766 17.2253 44.1541 16.2028 42.0887 15.3233L40.9133 18.0834C42.847 18.9068 44.2016 19.7268 45.074 20.675C45.8946 21.567 46.3554 22.6442 46.3554 24.1876H49.3554ZM40.3438 32.5629C44.952 32.5629 49.3554 29.2931 49.3554 24.1876H46.3554C46.3554 27.2698 43.687 29.5629 40.3438 29.5629V32.5629Z" fill="black"/>
</svg>
