<svg width="60" height="60" viewBox="0 0 60 60" fill="none" xmlns="http://www.w3.org/2000/svg">
<rect width="60" height="60" rx="30" fill="#FFAE00"/>
<path fill-rule="evenodd" clip-rule="evenodd" d="M38.1253 28.9536H26.1253H18.9253V36.1536V37.3536V44.5536L26.1253 44.5536H38.1253L45.3253 44.5536L45.3253 37.3536V36.1536L45.3253 28.9536H38.1253ZM43.4053 39.2736V34.2344L42.6217 33.4512C42.5876 33.4578 42.5544 33.4667 42.5213 33.4757C42.4579 33.4929 42.3947 33.51 42.3253 33.51C41.4649 33.51 40.7677 32.814 40.7677 31.9536C40.7677 31.8827 40.7855 31.8178 40.8034 31.7526L40.8034 31.7526L40.8034 31.7526L40.8035 31.7525L40.8035 31.7525L40.8035 31.7525L40.8035 31.7525C40.8122 31.7206 40.821 31.6887 40.8277 31.656L40.0453 30.8736H24.2053L23.4217 31.6572C23.4284 31.6901 23.4373 31.7221 23.4461 31.754C23.4639 31.8187 23.4817 31.8829 23.4817 31.9536C23.4817 32.814 22.7857 33.5112 21.9253 33.5112C21.8544 33.5112 21.7895 33.4933 21.7243 33.4754L21.7243 33.4754C21.6924 33.4667 21.6604 33.4579 21.6277 33.4512L20.8453 34.2336V39.2727L21.6289 40.056C21.663 40.0494 21.6962 40.0404 21.7292 40.0315C21.7927 40.0143 21.8559 39.9972 21.9253 39.9972C22.7857 39.9972 23.4829 40.6932 23.4829 41.5536C23.4829 41.6237 23.4651 41.6889 23.4471 41.7543C23.4384 41.7863 23.4296 41.8184 23.4229 41.8512L24.2053 42.6336H40.0453L40.8289 41.85C40.8221 41.8171 40.8133 41.785 40.8045 41.7531C40.7866 41.6885 40.7689 41.6243 40.7689 41.5536C40.7689 40.6932 41.4649 39.996 42.3253 39.996C42.3962 39.996 42.4611 40.0138 42.5263 40.0317C42.5582 40.0405 42.5901 40.0493 42.6229 40.056L43.4053 39.2736ZM39.9253 38.3112C40.7855 38.3112 41.4829 37.6138 41.4829 36.7536C41.4829 35.8933 40.7855 35.196 39.9253 35.196C39.0651 35.196 38.3677 35.8933 38.3677 36.7536C38.3677 37.6138 39.0651 38.3112 39.9253 38.3112ZM36.8365 36.7536C36.8365 39.0162 34.7272 40.8504 32.1253 40.8504C29.5234 40.8504 27.4141 39.0162 27.4141 36.7536C27.4141 34.491 29.5234 32.6568 32.1253 32.6568C34.7272 32.6568 36.8365 34.491 36.8365 36.7536ZM24.3253 38.31C25.1849 38.31 25.8817 37.6132 25.8817 36.7536C25.8817 35.894 25.1849 35.1972 24.3253 35.1972C23.4657 35.1972 22.7689 35.894 22.7689 36.7536C22.7689 37.6132 23.4657 38.31 24.3253 38.31Z" fill="white"/>
<path fill-rule="evenodd" clip-rule="evenodd" d="M17.1251 28.9536C17.1251 27.96 17.9315 27.1536 18.9251 27.1536H19.9091L19.9535 27L33.8459 19.392L34.9079 19.7016C34.9176 19.7325 34.9252 19.7639 34.9329 19.7954L34.9329 19.7955L34.9329 19.7955C34.9491 19.8617 34.9653 19.9282 35.0003 19.9908C35.4131 20.7468 36.3587 21.0216 37.1147 20.6088C37.1777 20.574 37.227 20.5259 37.2764 20.4778C37.2985 20.4563 37.3206 20.4348 37.3439 20.4144L38.4083 20.7264L40.8287 25.1448L40.5179 26.208C40.4877 26.2172 40.4569 26.2245 40.426 26.2319C40.3598 26.2477 40.2929 26.2636 40.2299 26.298C39.8783 26.49 39.6443 26.8044 39.5207 27.1536H44.1179L41.0147 21.486H41.0159L37.5563 15.1716L31.2395 18.63H31.2407L20.7155 24.3936L14.3999 27.852L17.1251 32.8284V28.9536ZM36.5675 26.1624C37.4271 26.1624 38.1239 25.4656 38.1239 24.606C38.1239 23.7464 37.4271 23.0496 36.5675 23.0496C35.7079 23.0496 35.0111 23.7464 35.0111 24.606C35.0111 25.4656 35.7079 26.1624 36.5675 26.1624ZM25.5371 27.1536C25.9595 26.1984 26.7119 25.332 27.7571 24.7608C30.0395 23.5116 32.7695 24.1068 33.8579 26.0916C34.0427 26.4288 34.1471 26.7876 34.2167 27.1536H25.5371Z" fill="white"/>
</svg>
