<svg width="64" height="34" viewBox="0 0 64 34" fill="none" xmlns="http://www.w3.org/2000/svg">
<path d="M32 33.3061C49.6731 33.3061 64 25.8503 64 16.6531C64 7.45583 49.6731 0 32 0C14.3269 0 0 7.45583 0 16.6531C0 25.8503 14.3269 33.3061 32 33.3061Z" fill="#8993BE"/>
<path fill-rule="evenodd" clip-rule="evenodd" d="M25.2465 21.551L28.7624 3.9184H32.9377L32.0587 8.48962H36.014C39.5301 8.70738 40.8485 10.4487 40.4091 12.6258L38.8709 21.551H34.476L36.0142 13.4966C36.2338 12.4081 36.2338 11.755 34.6958 11.755H31.3995L29.4218 21.551H25.2465ZM9.14282 26.1225L12.659 8.48962H20.7894C24.3053 8.70738 26.0633 10.4487 26.0633 13.4966C26.0633 18.7211 21.8882 21.7688 18.1523 21.551H14.1972L13.3182 26.1225H9.14282ZM42.1053 8.48962L38.5894 26.1225H42.7645L43.6436 21.551H47.5991C51.3348 21.7688 55.5102 18.7211 55.5102 13.4966C55.5102 10.4487 53.7521 8.70738 50.236 8.48962H42.1053Z" fill="#232531"/>
<path fill-rule="evenodd" clip-rule="evenodd" d="M15.0205 18.2857L16.1091 11.7551H18.939C20.4628 11.7551 21.5511 12.4081 21.5511 13.7142C21.3336 17.415 19.592 18.068 17.6329 18.2857H15.0208H15.0205Z" fill="#8993BE"/>
<path fill-rule="evenodd" clip-rule="evenodd" d="M44.4082 18.2857L45.4967 11.7551H48.3268C49.8505 11.7551 50.9388 12.4081 50.9388 13.7142C50.7213 17.415 48.9798 18.068 47.0207 18.2857H44.4085H44.4082Z" fill="#8993BE"/>
</svg>
