<svg width="57" height="60" viewBox="0 0 57 60" fill="none" xmlns="http://www.w3.org/2000/svg">
<path fill-rule="evenodd" clip-rule="evenodd" d="M28.5 40.5C43.6878 40.5 56 35.799 56 30C56 24.201 43.6878 19.5 28.5 19.5C13.3122 19.5 1 24.201 1 30C1 35.799 13.3122 40.5 28.5 40.5Z" stroke="#606FC7"/>
<path fill-rule="evenodd" clip-rule="evenodd" d="M19.4067 35.25C27.0006 48.403 37.2279 56.7152 42.25 53.8157C47.2721 50.9162 45.1872 37.903 37.5933 24.75C29.9993 11.5969 19.7721 3.2848 14.75 6.1843C9.72792 9.08379 11.8128 22.0969 19.4067 35.25Z" stroke="#606FC7"/>
<path fill-rule="evenodd" clip-rule="evenodd" d="M19.4067 24.75C11.8128 37.903 9.72792 50.9162 14.75 53.8157C19.7721 56.7152 29.9993 48.403 37.5933 35.25C45.1872 22.0969 47.2721 9.08379 42.25 6.1843C37.2279 3.2848 27.0006 11.5969 19.4067 24.75Z" stroke="#606FC7"/>
</svg>
