<svg width="7" height="12" viewBox="0 0 7 12" fill="none" xmlns="http://www.w3.org/2000/svg">
<path fill-rule="evenodd" clip-rule="evenodd" d="M6.62095 5.99878C6.62095 5.89461 6.58335 5.80236 6.5075 5.72211L1.22424 0.120295C1.14871 0.0402105 1.06174 0 0.963497 0C0.865252 0 0.778244 0.0402105 0.702714 0.120295L0.135876 0.721389C0.0601866 0.801516 0.0224609 0.893558 0.0224609 0.997895C0.0224609 1.10223 0.0601866 1.19427 0.135876 1.2744L4.59163 5.99878L0.135876 10.7232C0.0601866 10.8034 0.0224609 10.8956 0.0224609 10.9996C0.0224609 11.1039 0.0601866 11.1961 0.135876 11.2763L0.702674 11.8771C0.778244 11.9573 0.865212 11.9973 0.963457 11.9973C1.0617 11.9973 1.14867 11.9573 1.22424 11.8771L6.5075 6.27528C6.58335 6.1952 6.62095 6.10295 6.62095 5.99878Z" fill="#F5A623"/>
</svg>
