<svg width="17" height="17" viewBox="0 0 17 17" fill="none" xmlns="http://www.w3.org/2000/svg">
<path fill-rule="evenodd" clip-rule="evenodd" d="M12.8505 11.0413L16.3602 14.5509C16.8874 15.0782 16.8874 15.933 16.3602 16.4602C15.8329 16.9874 14.9781 16.9874 14.4508 16.4602L10.9411 12.9504C10.9305 12.9399 10.9218 12.9283 10.9131 12.9167C10.9063 12.9078 10.8996 12.8989 10.8921 12.8905C9.8445 13.5811 8.59058 13.9841 7.24198 13.9841C3.57368 13.9841 0.599976 11.0103 0.599976 7.34208C0.599976 3.67378 3.57374 0.700012 7.24204 0.700012C10.9103 0.700012 13.8841 3.67378 13.8841 7.34214C13.8841 8.69068 13.481 9.94466 12.7904 10.9922C12.7989 10.9997 12.8077 11.0064 12.8166 11.0131C12.8282 11.0219 12.8399 11.0307 12.8505 11.0413ZM2.90251 7.34208C2.90251 9.73871 4.84534 11.6815 7.24204 11.6815C9.63861 11.6815 11.5815 9.73871 11.5815 7.34208C11.5815 4.94545 9.63861 3.00254 7.24204 3.00254C4.84541 3.00254 2.90251 4.94538 2.90251 7.34208Z" fill="black"/>
</svg>
