<svg width="177" height="51" viewBox="0 0 177 51" fill="none" xmlns="http://www.w3.org/2000/svg">
<path d="M32.4388 4.29258C31.6665 1.97551 29.1868 0.715347 26.8697 1.44705C24.5527 2.21941 23.2925 4.69909 24.0242 7.01616L35.447 42.1381C36.2193 44.2926 38.577 45.5121 40.8128 44.8617C43.1705 44.1706 44.5933 41.691 43.821 39.4145C43.821 39.3332 32.4388 4.29258 32.4388 4.29258Z" fill="#ECB32D"/>
<path d="M14.7562 10.0243C13.9839 7.7072 11.5042 6.44704 9.18711 7.17874C6.87004 7.9511 5.60988 10.4308 6.34159 12.7478L17.7643 47.8698C18.5367 50.0243 20.8944 51.2438 23.1302 50.5934C25.4879 49.9023 26.9107 47.4226 26.1383 45.1462C26.1383 45.0649 14.7562 10.0243 14.7562 10.0243Z" fill="#63C1A0"/>
<path d="M46.8291 33.3578C49.1462 32.5854 50.4064 30.1058 49.6747 27.7887C48.9023 25.4716 46.4226 24.2114 44.1056 24.9431L8.94295 36.4066C6.78848 37.1789 5.56897 39.5366 6.21937 41.7724C6.91043 44.1301 9.39011 45.5529 11.6665 44.7805C11.7478 44.7805 46.8291 33.3578 46.8291 33.3578Z" fill="#E01A59"/>
<path d="M16.2602 43.3172C18.5366 42.5855 21.5041 41.6098 24.6748 40.5936C23.9431 38.3172 22.9675 35.3497 21.9513 32.179L13.5366 34.9025L16.2602 43.3172Z" fill="#331433"/>
<path d="M33.9838 37.5447C37.1546 36.5284 40.122 35.5528 42.3985 34.8211C41.6668 32.5447 40.6911 29.5772 39.6749 26.4065L31.2603 29.1301L33.9838 37.5447Z" fill="#D62027"/>
<path d="M41.057 15.6747C43.3741 14.9023 44.6343 12.4226 43.9026 10.1056C43.1302 7.7885 40.6505 6.52834 38.3335 7.26004L3.21151 18.6828C1.05703 19.4552 -0.162477 21.8129 0.487929 24.0487C1.17899 26.4064 3.65866 27.8291 5.93508 27.0568C6.01638 27.0568 41.057 15.6747 41.057 15.6747Z" fill="#89D3DF"/>
<path d="M10.5283 25.5935C12.8047 24.8618 15.7722 23.8862 18.9429 22.87C17.9266 19.6992 16.951 16.7317 16.2193 14.4553L7.80469 17.1789L10.5283 25.5935Z" fill="#258B74"/>
<path d="M28.2114 19.8618C31.3821 18.8456 34.3496 17.87 36.626 17.1383C35.6097 13.9675 34.6341 11.0001 33.9024 8.72363L25.4878 11.4472L28.2114 19.8618Z" fill="#819C3C"/>
<path d="M81.0779 14.0493C82.5996 14.7456 82.7197 15.2371 81.5184 17.5717C80.277 19.9473 79.9967 20.1111 78.475 19.4968C76.5929 18.6776 74.1502 18.0632 72.5885 18.0632C70.0257 18.0632 68.3438 19.0053 68.3438 20.4388C68.3438 25.149 83 22.6096 83 32.6035C83 37.6414 78.7553 41 72.4283 41C69.1046 41 64.9801 39.8532 62.1369 38.3787C60.7354 37.6414 60.6153 37.2318 61.8566 34.8153C62.8978 32.7264 63.2582 32.4806 64.7799 33.136C67.1825 34.2009 70.2659 35.061 72.3082 35.061C74.6307 35.061 76.1925 34.078 76.1925 32.6854C76.1925 28.139 61.256 30.3098 61.256 20.6026C61.256 15.4419 65.4606 12.0013 71.7476 12.0013C74.7909 11.9604 78.515 12.8615 81.0779 14.0493Z" fill="white"/>
<path d="M93 1.98556V38.8677C93 39.4338 92.4578 40 91.7349 40H88.2651C87.506 40 87 39.3934 87 38.8677V1.98556C87 0.165723 87.4699 0.00395923 90 0.00395923C92.8916 -0.0364817 93 0.206164 93 1.98556Z" fill="white"/>
<path fill-rule="evenodd" clip-rule="evenodd" d="M120 39.2797V23.1822C120 16.137 115.296 12 107.841 12C104.532 12 100.944 13.1469 98.2724 14.9082C96.8771 15.8503 96.8372 16.2599 98.2724 18.5127C99.7475 20.7655 100.066 20.8065 101.422 20.0282C103.176 18.9633 105.409 18.226 107.203 18.226C111.07 18.226 113.342 19.9873 113.342 22.9364V24.7797C111.508 24.0014 109.276 23.5508 106.804 23.5508C100.306 23.5508 96 27.1963 96 32.5621C96 37.6003 99.8272 41 105.528 41C108.478 41 111.429 39.7712 113.462 37.4364L113.422 39.1568C113.342 40.0579 113.94 40.7133 114.817 40.7133H118.605C119.402 40.7133 120 40.1398 120 39.2797ZM106.326 35.7161C103.973 35.7161 102.379 34.4463 102.379 32.5212C102.379 30.1455 104.731 28.4251 108.319 28.4251C109.953 28.4251 111.827 28.7528 113.342 29.3672V31.8658C111.827 34.2825 109.196 35.7161 106.326 35.7161Z" fill="white"/>
<path d="M146.609 14.1269C147.995 14.945 148.034 15.3949 146.53 17.8082C145.104 20.0987 144.867 20.2214 143.322 19.4443C142.174 18.8307 140.313 18.299 138.808 18.299C134.057 18.299 130.89 21.5303 130.89 26.4386C130.89 31.5106 134.057 34.9464 138.808 34.9464C140.471 34.9464 142.53 34.292 143.877 33.5148C145.262 32.6968 145.54 32.7377 147.005 34.9464C148.311 36.9915 148.311 37.4824 147.123 38.3413C144.985 39.8547 141.659 41 138.69 41C129.9 41 124 35.1918 124 26.4386C124 17.7673 129.9 12 138.769 12C141.461 12 144.629 12.9408 146.609 14.1269Z" fill="white"/>
<path d="M176.432 37.3413C177.548 38.7498 177.109 39.273 174.319 40.2791C171.49 41.3255 171.091 41.245 170.095 39.9572L162.163 29.2922L158.616 32.7533V39.6755C158.616 40.2389 158.018 40.8023 157.221 40.8023H153.395C152.558 40.8023 152 40.1987 152 39.6755V2.97201C152 1.16098 152.518 1 155.308 1C158.536 1 158.616 1.24147 158.616 2.97201V23.8189L169.457 13.315C170.653 12.1881 171.33 12.2686 173.442 13.6772C175.794 15.2065 175.953 15.6492 174.837 16.7358L166.787 24.7043L176.432 37.3413Z" fill="white"/>
</svg>
