<svg width="60" height="60" viewBox="0 0 60 60" fill="none" xmlns="http://www.w3.org/2000/svg">
<rect width="60" height="60" rx="30" fill="#FFAE00"/>
<path fill-rule="evenodd" clip-rule="evenodd" d="M36.9251 27.7536H24.9251H17.7251V34.9536V36.1536V43.3536L24.9251 43.3536H36.9251L44.1251 43.3536L44.1251 36.1536V34.9536L44.1251 27.7536H36.9251ZM38.8451 29.6736H23.0051L22.2215 30.4572C22.2282 30.4901 22.2371 30.5221 22.2459 30.554C22.2638 30.6187 22.2815 30.6829 22.2815 30.7536C22.2815 31.614 21.5855 32.3112 20.7251 32.3112C20.6542 32.3112 20.5893 32.2934 20.5241 32.2755L20.5241 32.2755L20.5241 32.2755L20.5241 32.2755C20.4922 32.2667 20.4602 32.2579 20.4275 32.2512L19.6451 33.0336V38.0727L20.4287 38.856C20.4628 38.8494 20.496 38.8404 20.529 38.8315C20.5925 38.8143 20.6557 38.7972 20.7251 38.7972C21.5855 38.7972 22.2827 39.4932 22.2827 40.3536C22.2827 40.4237 22.2649 40.4889 22.247 40.5543C22.2382 40.5864 22.2294 40.6185 22.2227 40.6512L23.0051 41.4336H38.8451L39.6287 40.65C39.622 40.6171 39.6131 40.5851 39.6043 40.5532L39.6043 40.5531C39.5864 40.4885 39.5687 40.4243 39.5687 40.3536C39.5687 39.4932 40.2647 38.796 41.1251 38.796C41.196 38.796 41.2609 38.8138 41.3261 38.8317L41.3261 38.8317C41.358 38.8405 41.39 38.8493 41.4227 38.856L42.2051 38.0736V33.0345L41.4215 32.2512C41.3874 32.2578 41.3542 32.2668 41.3212 32.2757C41.2577 32.2929 41.1945 32.31 41.1251 32.31C40.2647 32.31 39.5675 31.614 39.5675 30.7536C39.5675 30.6827 39.5853 30.6178 39.6032 30.5526L39.6032 30.5526L39.6033 30.5526L39.6033 30.5526L39.6033 30.5525L39.6033 30.5525L39.6033 30.5525C39.612 30.5206 39.6208 30.4887 39.6275 30.456L38.8451 29.6736ZM40.2827 35.5536C40.2827 36.4138 39.5853 37.1112 38.7251 37.1112C37.8649 37.1112 37.1675 36.4138 37.1675 35.5536C37.1675 34.6934 37.8649 33.996 38.7251 33.996C39.5853 33.996 40.2827 34.6934 40.2827 35.5536ZM30.9251 39.6504C33.527 39.6504 35.6363 37.8162 35.6363 35.5536C35.6363 33.291 33.527 31.4568 30.9251 31.4568C28.3232 31.4568 26.2139 33.291 26.2139 35.5536C26.2139 37.8162 28.3232 39.6504 30.9251 39.6504ZM24.6815 35.5536C24.6815 36.4132 23.9847 37.11 23.1251 37.11C22.2655 37.11 21.5687 36.4132 21.5687 35.5536C21.5687 34.694 22.2655 33.9972 23.1251 33.9972C23.9847 33.9972 24.6815 34.694 24.6815 35.5536Z" fill="white"/>
<path fill-rule="evenodd" clip-rule="evenodd" d="M25.7452 21.6H36.6543H43.1997V26.4H41.0169L40.7419 26.0976C40.7109 26.1042 40.6807 26.1131 40.6507 26.1221C40.593 26.1393 40.5355 26.1564 40.4724 26.1564C39.6903 26.1564 39.0564 25.4604 39.0564 24.6C39.0564 24.5291 39.0727 24.4642 39.0889 24.399L39.0889 24.3989C39.0969 24.367 39.1049 24.3351 39.111 24.3024L38.3997 23.52H23.9997L23.2873 24.3036C23.2935 24.3365 23.3015 24.3685 23.3095 24.4004L23.3095 24.4004L23.3095 24.4004L23.3095 24.4004L23.3095 24.4004L23.3095 24.4004C23.3258 24.465 23.3419 24.5293 23.3419 24.6C23.3419 25.4604 22.7092 26.1576 21.927 26.1576C21.8625 26.1576 21.8035 26.1397 21.7443 26.1218L21.7443 26.1218L21.7443 26.1218L21.7443 26.1218L21.7443 26.1218C21.7153 26.1131 21.6862 26.1043 21.6564 26.0976L21.3815 26.4H19.1997V21.6H25.7452ZM34.1164 26.4H28.283C29.0477 25.7194 30.0729 25.3032 31.1997 25.3032C32.3265 25.3032 33.3517 25.7194 34.1164 26.4Z" fill="white"/>
<path fill-rule="evenodd" clip-rule="evenodd" d="M26.2908 16.8H36.109H41.9999V20.4H38.369C38.3058 20.2154 38.271 20.0127 38.271 19.8C38.271 19.7291 38.2856 19.6642 38.3002 19.599C38.3074 19.5671 38.3146 19.5351 38.32 19.5024L37.6799 18.72H24.7199L24.0788 19.5036C24.0843 19.5365 24.0915 19.5685 24.0987 19.6004L24.0987 19.6004L24.0987 19.6004C24.1133 19.6651 24.1279 19.7293 24.1279 19.8C24.1279 20.0126 24.0931 20.2153 24.0301 20.4H20.3999V16.8H26.2908Z" fill="white"/>
</svg>
