<svg width="60" height="60" viewBox="0 0 60 60" fill="none" xmlns="http://www.w3.org/2000/svg">
<rect width="60" height="60" rx="30" fill="#FFAE00"/>
<path fill-rule="evenodd" clip-rule="evenodd" d="M34.7764 16.8L36.8735 18.4727V18.4718C37.0481 18.6111 37.2964 18.6111 37.471 18.4718L39.0898 17.1813V41.5178H20.8953V17.1822L22.5122 18.4727C22.6873 18.6125 22.9358 18.6125 23.1107 18.4727L25.2045 16.8L27.2965 18.4727C27.4713 18.6125 27.7201 18.6125 27.895 18.4727L29.9893 16.8L32.0826 18.4727C32.2575 18.6125 32.5063 18.6125 32.6811 18.4727L34.7764 16.8ZM23.2893 33.3931H25.2045C25.4689 33.3931 25.6833 33.1791 25.6833 32.9152C25.6833 32.651 25.4689 32.4372 25.2045 32.4372H23.2893C23.0249 32.4372 22.8105 32.651 22.8105 32.9152C22.8105 33.1791 23.0249 33.3931 23.2893 33.3931ZM25.2045 30.5255H23.2893C23.0249 30.5255 22.8105 30.3116 22.8105 30.0476C22.8105 29.7835 23.0249 29.5697 23.2893 29.5697H25.2045C25.4689 29.5697 25.6833 29.7835 25.6833 30.0476C25.6833 30.3116 25.4689 30.5255 25.2045 30.5255ZM23.2893 27.658H25.2045C25.4689 27.658 25.6833 27.444 25.6833 27.1801C25.6833 26.9159 25.4689 26.7022 25.2045 26.7022H23.2893C23.0249 26.7022 22.8105 26.9159 22.8105 27.1801C22.8105 27.444 23.0249 27.658 23.2893 27.658ZM36.6958 33.3931H27.1197C26.8553 33.3931 26.6409 33.1791 26.6409 32.9152C26.6409 32.651 26.8553 32.4372 27.1197 32.4372H36.6958C36.9602 32.4372 37.1746 32.651 37.1746 32.9152C37.1746 33.1791 36.9602 33.3931 36.6958 33.3931ZM27.1197 30.5255H36.6958C36.9602 30.5255 37.1746 30.3116 37.1746 30.0476C37.1746 29.7835 36.9602 29.5697 36.6958 29.5697H27.1197C26.8553 29.5697 26.6409 29.7835 26.6409 30.0476C26.6409 30.3116 26.8553 30.5255 27.1197 30.5255ZM36.6958 27.658H27.1197C26.8553 27.658 26.6409 27.444 26.6409 27.1801C26.6409 26.9159 26.8553 26.7022 27.1197 26.7022H36.6958C36.9602 26.7022 37.1746 26.9159 37.1746 27.1801C37.1746 27.444 36.9602 27.658 36.6958 27.658ZM41.005 38.1723C41.005 37.9081 41.2194 37.6944 41.4838 37.6944C41.7482 37.6944 41.9626 37.9081 41.9626 38.1723V43.9074C41.9626 44.1713 41.7482 44.3853 41.4838 44.3853H18.5013C18.2368 44.3853 18.0225 44.1713 18.0225 43.9074V38.1723C18.0225 37.9081 18.2368 37.6944 18.5013 37.6944C18.7657 37.6944 18.9801 37.9081 18.9801 38.1723V43.4294H41.005V38.1723Z" fill="white"/>
</svg>
