<svg width="18" height="17" viewBox="0 0 18 17" fill="none" xmlns="http://www.w3.org/2000/svg">
<path fill-rule="evenodd" clip-rule="evenodd" d="M16.8 7.61328C17.46 7.61328 18 7.05957 18 6.38281C18 5.70605 17.46 5.15234 16.8 5.15234C17.46 5.15234 18 4.59863 18 3.92188C18 3.24512 17.46 2.69141 16.8 2.69141H15.6C16.2628 2.69141 16.8 2.14053 16.8 1.46094C16.8 0.781431 16.2628 0.230469 15.6 0.230511H9.972C9.324 0.230511 8.68796 0.341292 8.07596 0.550431L6 1.25684V10.1598C8.3422 10.7106 9.27032 13.4301 9.86396 15.8C9.924 16.083 10.212 16.2676 10.44 16.2676H10.8C11.7814 16.2676 12.6 15.4457 12.6 14.4219C12.6 14.3998 12.6 14.378 12.6 14.3563C12.6002 13.0204 12.6003 12.29 11.88 10.0742H16.8C17.46 10.0742 18 9.52051 18 8.84375C18 8.16699 17.46 7.61328 16.8 7.61328ZM3 10.0964H0.6C0.26836 10.0964 0 9.82126 0 9.4812V1.15527C0 0.815213 0.26836 0.540039 0.6 0.540039H3C3.15962 0.540039 3.31444 0.535512 3.4619 0.5312C4.23137 0.508703 4.8 0.492078 4.8 1.15527V9.29224C4.8 10.1528 4.22274 10.133 3.44441 10.1064C3.30222 10.1015 3.15332 10.0964 3 10.0964ZM3 1.46094C2.66864 1.46094 2.4 1.7364 2.4 2.07617C2.4 2.41603 2.66864 2.69141 3 2.69141C3.33136 2.69141 3.6 2.41603 3.6 2.07617C3.6 1.7364 3.33136 1.46094 3 1.46094Z" fill="white"/>
</svg>
