<svg width="18" height="17" viewBox="0 0 18 17" fill="none" xmlns="http://www.w3.org/2000/svg">
<path fill-rule="evenodd" clip-rule="evenodd" d="M16.8 9.38672C17.46 9.38672 18 9.94043 18 10.6172C18 11.2939 17.46 11.8477 16.8 11.8477C17.46 11.8477 18 12.4014 18 13.0781C18 13.7549 17.46 14.3086 16.8 14.3086H15.6C16.2628 14.3086 16.8 14.8595 16.8 15.5391C16.8 16.2186 16.2628 16.7695 15.6 16.7695H9.972C9.324 16.7695 8.68796 16.6587 8.07596 16.4496L6 15.7432V6.84022C8.3422 6.28938 9.27032 3.56992 9.86396 1.2C9.924 0.917033 10.212 0.732422 10.44 0.732422H10.8C11.7814 0.732422 12.6 1.55433 12.6 2.57812C12.6 2.60016 12.6 2.62203 12.6 2.64374C12.6002 3.9796 12.6003 4.70999 11.88 6.92578H16.8C17.46 6.92578 18 7.47949 18 8.15625C18 8.83301 17.46 9.38672 16.8 9.38672ZM3 6.90356H0.6C0.26836 6.90356 0 7.17874 0 7.5188V15.8447C0 16.1848 0.26836 16.46 0.6 16.46H3C3.15962 16.46 3.31444 16.4645 3.4619 16.4688C4.23137 16.4913 4.8 16.5079 4.8 15.8447V7.70776C4.8 6.84721 4.22274 6.86697 3.44441 6.8936C3.30222 6.89847 3.15332 6.90356 3 6.90356ZM3 15.5391C2.66864 15.5391 2.4 15.2636 2.4 14.9238C2.4 14.584 2.66864 14.3086 3 14.3086C3.33136 14.3086 3.6 14.584 3.6 14.9238C3.6 15.2636 3.33136 15.5391 3 15.5391Z" fill="white"/>
</svg>
