<svg width="60" height="60" viewBox="0 0 60 60" fill="none" xmlns="http://www.w3.org/2000/svg">
<rect width="60" height="60" rx="30" fill="#FFAE00"/>
<path fill-rule="evenodd" clip-rule="evenodd" d="M34.1555 24.0514H24.4257H18.5879V29.769V30.722V36.4396H24.4257H34.1555H39.9933V30.722V29.769V28.816H51.4736L50.2942 30.0482C49.9381 30.4204 49.9381 31.0237 50.2943 31.3958C50.4723 31.5819 50.7059 31.6749 50.9393 31.6749C51.1727 31.6749 51.4061 31.5819 51.5843 31.3958L54.3208 28.537L54.3235 28.5338C54.3437 28.5125 54.3629 28.4903 54.3811 28.4672C54.3869 28.4599 54.3922 28.4523 54.3974 28.4447L54.4059 28.4326L54.4139 28.4216C54.4208 28.412 54.4278 28.4024 54.4342 28.3923C54.4409 28.3818 54.447 28.3711 54.453 28.3603L54.4585 28.3504L54.4648 28.3397L54.4649 28.3395C54.4701 28.3306 54.4753 28.3216 54.4801 28.3124C54.4855 28.3017 54.4904 28.2907 54.4952 28.2798L54.5001 28.2689L54.5049 28.2585C54.5096 28.2484 54.5143 28.2383 54.5184 28.2278C54.5225 28.2175 54.526 28.2071 54.5295 28.1966L54.5334 28.1849L54.5377 28.1725C54.5415 28.1617 54.5453 28.1509 54.5485 28.1398C54.5501 28.1344 54.5515 28.1289 54.5528 28.1234L54.5562 28.1089L54.5591 28.0966C54.563 28.0809 54.5672 28.0654 54.5702 28.0494C54.5734 28.0327 54.5752 28.016 54.5776 27.9992L54.5797 27.9842C54.5811 27.9753 54.5825 27.9663 54.5833 27.9572C54.5863 27.9264 54.5878 27.8955 54.5878 27.8618C54.5878 27.8309 54.5863 27.8 54.5833 27.7692C54.5825 27.7598 54.581 27.7505 54.5796 27.7413L54.5774 27.7267C54.5752 27.7101 54.5733 27.6935 54.5702 27.677C54.5679 27.665 54.565 27.6531 54.562 27.6413L54.5591 27.6293L54.5563 27.6176C54.554 27.6072 54.5516 27.5969 54.5486 27.5866C54.5451 27.5746 54.541 27.5628 54.5368 27.551L54.5332 27.5408L54.5298 27.5307L54.5298 27.5306C54.5262 27.5199 54.5226 27.5092 54.5184 27.4986C54.5142 27.4878 54.5093 27.4774 54.5045 27.4669L54.4998 27.4567L54.4947 27.4453C54.4901 27.4348 54.4855 27.4244 54.4802 27.4142C54.4753 27.4045 54.4699 27.3953 54.4645 27.386L54.4645 27.386L54.4644 27.386L54.458 27.3748L54.4518 27.3638C54.4462 27.3539 54.4406 27.3439 54.4343 27.3342C54.4273 27.3231 54.4196 27.3126 54.412 27.3021L54.4047 27.292L54.3963 27.2801C54.3914 27.273 54.3866 27.266 54.3813 27.2593C54.3622 27.2349 54.342 27.2115 54.3206 27.1892L51.5842 24.3305C51.228 23.9584 50.6504 23.9584 50.2942 24.3305C49.938 24.7026 49.938 25.306 50.2942 25.6781L51.4736 26.9102H39.9933V24.0514H34.1555ZM38.4365 32.2467V28.816H32.723C32.9711 29.2475 33.1105 29.7326 33.1105 30.2455C33.1105 32.0423 31.4003 33.4989 29.2906 33.4989C27.1809 33.4989 25.4707 32.0423 25.4707 30.2455C25.4707 28.4487 27.1809 26.9922 29.2906 26.9922C29.4563 26.9922 29.6196 27.0012 29.7798 27.0186C29.9062 26.9494 30.0501 26.9102 30.2028 26.9102H36.3951C36.3325 26.7636 36.2979 26.6027 36.2979 26.4337C36.2979 26.3775 36.3124 26.3259 36.3269 26.2742C36.334 26.2488 36.3412 26.2234 36.3466 26.1974L35.7122 25.5761H22.869L22.2336 26.1984C22.2391 26.2245 22.2463 26.2499 22.2534 26.2753L22.2534 26.2753C22.2679 26.3266 22.2823 26.3776 22.2823 26.4337C22.2823 27.117 21.7179 27.6707 21.0203 27.6707C20.9629 27.6707 20.9102 27.6565 20.8574 27.6423L20.8574 27.6423L20.8574 27.6423C20.8315 27.6353 20.8056 27.6283 20.779 27.623L20.1446 28.2443V32.246L20.78 32.868C20.8077 32.8628 20.8345 32.8557 20.8613 32.8485L20.8614 32.8485C20.9128 32.8349 20.964 32.8213 21.0203 32.8213C21.7179 32.8213 22.2832 33.374 22.2832 34.0573C22.2832 34.1129 22.2688 34.1647 22.2543 34.2167L22.2543 34.2167C22.2471 34.2421 22.24 34.2676 22.2346 34.2936L22.869 34.9149H35.7122L36.3476 34.2927C36.3421 34.2665 36.3349 34.2411 36.3278 34.2157C36.3133 34.1644 36.2989 34.1134 36.2989 34.0573C36.2989 33.374 36.8632 32.8204 37.5609 32.8204C37.6183 32.8204 37.671 32.8345 37.7238 32.8487C37.7497 32.8557 37.7756 32.8627 37.8022 32.868L38.4365 32.2467ZM42.973 53.5925H21.7021L22.8815 54.8247C23.2377 55.1968 23.2377 55.8002 22.8814 56.1723C22.7034 56.3583 22.4699 56.4513 22.2365 56.4514C22.003 56.4514 21.7696 56.3583 21.5914 56.1722L18.8549 53.3134L18.8522 53.3102C18.832 53.289 18.8128 53.2668 18.7946 53.2437C18.7888 53.2364 18.7836 53.2288 18.7783 53.2212L18.7698 53.2091L18.7619 53.198L18.7618 53.198L18.7618 53.198L18.7618 53.198C18.7549 53.1884 18.7479 53.1788 18.7415 53.1688C18.7348 53.1583 18.7287 53.1475 18.7227 53.1367L18.7172 53.1269L18.7109 53.1161C18.7057 53.1071 18.7004 53.0981 18.6956 53.0889C18.6902 53.0781 18.6853 53.0672 18.6805 53.0563L18.6805 53.0563L18.6805 53.0563L18.6756 53.0453L18.6708 53.0349C18.6661 53.0248 18.6615 53.0147 18.6573 53.0043C18.6533 52.994 18.6498 52.9836 18.6463 52.9731L18.6423 52.9614L18.638 52.9489C18.6342 52.9381 18.6304 52.9273 18.6272 52.9163C18.6243 52.9061 18.6219 52.8957 18.6195 52.8853L18.6195 52.8853L18.6166 52.873L18.6138 52.8616C18.6108 52.8498 18.6078 52.838 18.6055 52.8258C18.6031 52.8133 18.6015 52.8007 18.5998 52.7881L18.5998 52.7881L18.5982 52.7757L18.596 52.7607C18.5946 52.7517 18.5933 52.7428 18.5924 52.7337C18.5895 52.7029 18.588 52.672 18.5879 52.6382C18.588 52.6074 18.5895 52.5764 18.5924 52.5457C18.5933 52.5363 18.5947 52.527 18.5961 52.5177L18.5983 52.5032L18.5998 52.4917C18.6015 52.4789 18.6031 52.4662 18.6055 52.4535C18.6078 52.4414 18.6108 52.4296 18.6137 52.4178L18.6137 52.4177L18.6167 52.4058L18.6194 52.3941C18.6218 52.3837 18.6241 52.3734 18.6271 52.3631C18.6306 52.351 18.6347 52.3393 18.6389 52.3275L18.6425 52.3172L18.6459 52.3073L18.6459 52.3073C18.6495 52.2965 18.6531 52.2857 18.6573 52.2751C18.6615 52.2643 18.6664 52.2539 18.6712 52.2435L18.6712 52.2435L18.6712 52.2434L18.6759 52.2332L18.681 52.2218C18.6856 52.2113 18.6903 52.2009 18.6955 52.1906C18.7004 52.181 18.7059 52.1717 18.7113 52.1624L18.7177 52.1513L18.724 52.1403L18.724 52.1402C18.7296 52.1303 18.7352 52.1203 18.7414 52.1106C18.7484 52.0996 18.7561 52.0891 18.7637 52.0786L18.7637 52.0786L18.7637 52.0786L18.7638 52.0785L18.7711 52.0685L18.7794 52.0566C18.7843 52.0495 18.7892 52.0425 18.7945 52.0357C18.8136 52.0113 18.8338 51.988 18.8551 51.9657L21.5915 49.107C21.9477 48.7348 22.5253 48.7348 22.8815 49.107C23.2377 49.4791 23.2377 50.0824 22.8815 50.4546L21.7021 51.6867H42.973C43.4767 51.6867 43.8851 52.1133 43.8851 52.6396C43.8851 53.1658 43.4767 53.5925 42.973 53.5925ZM35.6149 31.4824C36.3124 31.4824 36.8778 30.9286 36.8778 30.2455C36.8778 29.5624 36.3124 29.0086 35.6149 29.0086C34.9174 29.0086 34.352 29.5624 34.352 30.2455C34.352 30.9286 34.9174 31.4824 35.6149 31.4824ZM22.9663 31.4815C23.6632 31.4815 24.2282 30.9281 24.2282 30.2455C24.2282 29.5629 23.6632 29.0095 22.9663 29.0095C22.2693 29.0095 21.7043 29.5629 21.7043 30.2455C21.7043 30.9281 22.2693 31.4815 22.9663 31.4815Z" fill="white"/>
</svg>
